<svg width="592" height="513" xmlns="http://www.w3.org/2000/svg" xmlns:xlink="http://www.w3.org/1999/xlink" overflow="hidden"><defs><clipPath id="clip0"><path d="M344 104 936 104 936 617 344 617Z" fill-rule="evenodd" clip-rule="evenodd"/></clipPath></defs><g clip-path="url(#clip0)" transform="translate(-344 -104)"><path d="M476.784 142.836C459.52 172.195 393.047 284.797 361.872 337.552L350 357.606 377.188 404.625C392.141 430.506 425.038 487.326 450.277 530.912L496.133 610.181 640 610.181 783.867 610.181 829.723 530.912C854.963 487.326 887.859 430.506 902.813 404.625L930 357.606 918.128 337.552C886.953 284.797 820.48 172.195 803.216 142.836L783.867 110 640 110 496.133 110 476.784 142.836Z" stroke="#C80821" stroke-width="10" stroke-miterlimit="8" fill="none" fill-rule="evenodd"/><path d="M490.292 160.21C474.457 187.219 413.484 290.813 384.889 339.348L374 357.798 398.938 401.055C412.653 424.865 442.828 477.14 465.978 517.239L508.039 590.166 640 590.166 771.961 590.166 814.022 517.239C837.173 477.14 867.347 424.865 881.063 401.055L906 357.798 895.111 339.348C866.516 290.813 805.543 187.219 789.708 160.21L771.961 130 640 130 508.039 130 490.292 160.21Z" stroke="#C80821" stroke-width="10" stroke-miterlimit="8" fill="none" fill-rule="evenodd"/><path d="M596 280 640 204 684 280Z" fill="#C80821" fill-rule="evenodd"/><path d="M684 440 640 516 596 440Z" fill="#C80821" fill-rule="evenodd"/></g></svg>