<svg width="136" height="136" xmlns="http://www.w3.org/2000/svg" xmlns:xlink="http://www.w3.org/1999/xlink" overflow="hidden"><defs><clipPath id="clip0"><path d="M747 199 883 199 883 335 747 335Z" fill-rule="evenodd" clip-rule="evenodd"/></clipPath></defs><g clip-path="url(#clip0)" transform="translate(-747 -199)"><path d="M830.526 251C833.016 240.828 825.387 231 814.998 231 804.614 231 796.983 240.828 799.475 251 809.825 251 820.175 251 830.526 251Z" fill="#FFFFFF" fill-rule="evenodd"/><path d="M800 254C805.874 266 824.123 266 830 254 820 254 810.002 254 800 254Z" fill="#FFFFFF" fill-rule="evenodd"/><path d="M841.526 291C845.017 291 848.507 291 852 291 846.001 294.667 839.999 298.335 834 302 834.608 299.749 835.213 297.496 835.823 295.247 836.496 292.745 838.837 291 841.526 291Z" fill="#FFFFFF" fill-rule="evenodd"/><path d="M788.477 291C784.986 291 781.494 291 778 291 784 294.667 790.002 298.335 796 302 795.393 299.749 794.786 297.496 794.179 295.247 793.506 292.745 791.162 291 788.477 291Z" fill="#FFFFFF" fill-rule="evenodd"/><path d="M826.448 276C830.294 276 834.138 276 837.983 276 838.91 272.499 839.837 268.998 840.763 265.499 841.997 260.09 838.278 254.795 832.682 254 826.522 269.97 803.478 269.97 797.318 254 791.722 254.795 788 260.09 789.238 265.499 790.163 268.998 791.089 272.499 792.016 276 795.862 276 799.706 276 803.549 276 803.061 274.15 802.57 272.3 802.082 270.452 801.831 269.503 802.13 269.008 803.098 268.762 804.064 268.517 804.569 268.807 804.821 269.755 805.371 271.838 805.922 273.917 806.473 276 812.155 276 817.841 276 823.525 276 824.074 273.917 824.627 271.838 825.178 269.755 825.428 268.807 825.934 268.517 826.901 268.762 827.87 269.008 828.164 269.503 827.914 270.452 827.427 272.3 826.936 274.15 826.448 276Z" fill="#FFFFFF" fill-rule="evenodd"/><path d="M823 279 807 279C809.659 287 820.344 287 823 279Z" fill="#FFFFFF" fill-rule="evenodd"/><path d="M804.125 279C807.016 290.707 822.981 290.707 825.875 279L837 279 831.221 302.198C829.741 308.144 821.856 308.726 819.583 303.058L814.999 291.622 810.416 303.058C808.144 308.726 800.259 308.144 798.779 302.198L793 279 804.125 279Z" fill="#FFFFFF" fill-rule="evenodd"/></g></svg>