<svg width="136" height="136" xmlns="http://www.w3.org/2000/svg" xmlns:xlink="http://www.w3.org/1999/xlink" overflow="hidden"><defs><clipPath id="clip0"><path d="M293 199 429 199 429 335 293 335Z" fill-rule="evenodd" clip-rule="evenodd"/></clipPath></defs><g clip-path="url(#clip0)" transform="translate(-293 -199)"><path d="M369.539 261C371.955 251.846 364.563 243 354.501 243 344.438 243 337.046 251.846 339.46 261 349.487 261 359.514 261 369.539 261Z" fill="#FFFFFF" fill-rule="evenodd"/><path d="M369 272.265C369 270.617 369 268.968 369 267.321 361.819 277.953 346.074 277.784 339.122 267 335.242 270.54 331.363 274.077 327.482 277.615 324.973 279.904 323.963 282.225 324.001 285.615 324.001 290.161 324.001 294.712 324.001 299.26 324.001 303.89 330.774 304.39 331.455 299.81 332.168 295.01 332.885 290.209 333.596 285.411 333.85 283.707 334.544 282.633 335.997 281.703 337.994 280.422 339.99 279.144 341.99 277.863 347.567 277.863 353.144 277.863 358.725 277.863 362.829 276.954 366.017 275.219 369 272.265Z" fill="#FFFFFF" fill-rule="evenodd"/><path d="M360 280.569C360.661 282.258 361.323 283.949 361.982 285.64 363.483 289.48 369 288.367 369 284.228 369 281.484 369 278.743 369 276 366.269 278.266 363.402 279.72 360 280.569Z" fill="#FFFFFF" fill-rule="evenodd"/><path d="M385.005 255.329C380.764 257.219 376.525 259.109 372.289 261 373.122 257.164 372.732 253.935 371 250.383 376.025 249.069 381.049 247.756 386.072 246.439 389.32 245.588 391.801 245.956 394.631 247.704 398.179 249.896 401.724 252.087 405.269 254.279 409.112 256.654 405.939 262.273 401.754 260.507 397.633 258.767 393.51 257.028 389.388 255.287 387.822 254.626 386.554 254.639 385.005 255.329Z" fill="#FFFFFF" fill-rule="evenodd"/><path d="M341 264C346.288 276 362.712 276 368 264 359.001 264 350 264 341 264Z" fill="#FFFFFF" fill-rule="evenodd"/></g></svg>