<svg width="136" height="136" xmlns="http://www.w3.org/2000/svg" xmlns:xlink="http://www.w3.org/1999/xlink" overflow="hidden"><defs><clipPath id="clip0"><path d="M79 199 215 199 215 335 79 335Z" fill-rule="evenodd" clip-rule="evenodd"/></clipPath></defs><g clip-path="url(#clip0)" transform="translate(-79 -199)"><path d="M159.647 260.691C159.647 272.671 150.1 282.382 138.324 282.382 136.492 282.382 134.714 282.147 133.018 281.706 132.584 279.98 132.353 278.172 132.353 276.309 132.353 264.329 141.9 254.618 153.676 254.618 155.508 254.618 157.286 254.853 158.982 255.294 159.416 257.02 159.647 258.828 159.647 260.691ZM153.676 251.147C140.016 251.147 128.941 262.412 128.941 276.309 128.941 277.677 129.049 279.02 129.255 280.329 122.013 276.862 117 269.372 117 260.691 117 248.711 126.547 239 138.324 239 146.857 239 154.22 244.1 157.628 251.466 156.341 251.256 155.021 251.147 153.676 251.147ZM175 276.309C175 288.289 165.453 298 153.676 298 145.143 298 137.78 292.9 134.372 285.534 135.659 285.744 136.979 285.853 138.324 285.853 151.984 285.853 163.059 274.588 163.059 260.691 163.059 259.323 162.951 257.98 162.745 256.671 169.987 260.138 175 267.628 175 276.309Z" fill="#FFFFFF" fill-rule="evenodd"/></g></svg>